<?xml version="1.0" encoding="UTF-8"?>
<!DOCTYPE svg PUBLIC "-//W3C//DTD SVG 1.1//EN" "http://www.w3.org/Graphics/SVG/1.1/DTD/svg11.dtd">
<!-- Creator: CorelDRAW X7 -->
<svg xmlns="http://www.w3.org/2000/svg" xml:space="preserve" width="96.015mm" height="94.3019mm" version="1.1" style="shape-rendering:geometricPrecision; text-rendering:geometricPrecision; image-rendering:optimizeQuality; fill-rule:evenodd; clip-rule:evenodd"
viewBox="0 0 4489 4409"
 xmlns:xlink="http://www.w3.org/1999/xlink">
 <defs>
  <style type="text/css">
   <![CDATA[
    .fil0 {fill:#194510}
    .fil5 {fill:#3C701F}
    .fil4 {fill:#669933}
    .fil2 {fill:#669933}
    .fil7 {fill:#7CC12A}
    .fil8 {fill:#7CC12A}
    .fil6 {fill:#A6ABB0}
    .fil9 {fill:#B77474}
    .fil3 {fill:#E28F8F}
    .fil1 {fill:white}
   ]]>
  </style>
 </defs>
 <g id="Layer_x0020_1">
  <metadata id="CorelCorpID_0Corel-Layer"/>
  <circle class="fil0" cx="2205" cy="2205" r="2205"/>
  <g id="_2032188369808">
   <path class="fil0" d="M3655 2106c54,-56 115,-104 191,-129 45,-15 93,-21 140,-18 192,15 341,194 420,355 64,129 105,292 70,435 -35,144 -126,272 -234,372 -131,121 -294,206 -464,260 1,37 1,75 0,112 -373,456 -939,746 -1573,746 -637,0 -1205,-293 -1578,-750 16,-215 51,-437 127,-637l0 -143c-1,-496 73,-1021 396,-1417 -30,-48 -51,-102 -63,-157 -28,-122 -19,-257 16,-376 44,-151 132,-282 254,-381 72,-59 172,-70 246,-9 64,53 78,137 49,213 -23,63 -31,133 -15,199 4,20 12,42 22,62 384,-201 821,-314 1242,-156 71,27 138,60 203,99l27 -12c14,-6 27,-15 40,-23 30,-22 58,-50 87,-73 64,-53 138,-98 224,-74 89,25 130,103 145,188 18,107 -10,218 -53,317 91,90 144,211 146,341 3,129 -44,252 -132,347 5,81 20,162 45,240l22 69z"/>
   <path class="fil1" d="M1604 1007c172,135 -45,284 -238,236 56,36 133,40 195,27 -154,82 -287,21 -330,-168 -37,-167 2,-433 220,-609 43,-35 80,-9 62,37 -76,204 -10,397 91,477z"/>
   <path class="fil2" d="M1675 1004c143,159 -128,453 -357,322 -300,323 -416,783 -415,1383 104,-168 237,-244 387,-276 -226,119 -480,363 -521,1160 -1,20 2,40 7,60 75,74 156,143 243,205 97,29 201,38 301,34 245,-10 317,-268 322,-492 32,321 -22,573 -358,587 1,11 2,22 3,34 276,139 587,218 918,218 69,0 138,-4 206,-11 -19,-105 -48,-208 -86,-310 54,96 96,198 126,306 451,-54 856,-256 1166,-556 23,-178 17,-383 -20,-615 -31,21 -63,32 -97,38 360,-330 -135,-551 -424,-656 -50,16 -103,29 -159,40 172,90 288,208 357,404 91,-29 166,-76 225,-144 -31,199 -367,312 -696,334 -499,35 -1202,-111 -1233,-849 -111,-127 -187,-269 -226,-429 213,428 673,656 1192,628 311,-17 730,-78 956,-337 -30,-92 -47,-186 -52,-282 -63,40 -138,64 -219,66 -229,5 -419,-173 -424,-397 -1,-69 15,-134 45,-191 52,-109 163,-202 353,-243 -387,-330 -875,-388 -1520,-31zm-161 617c83,237 360,504 727,493 345,-11 529,-253 501,-597 -25,-292 -300,-519 -563,-506 -430,22 -614,429 -559,721 -41,-31 -76,-71 -106,-111z"/>
   <path class="fil1" d="M2667 1523c-11,-124 -74,-237 -167,-318 -86,-75 -202,-125 -319,-120 -167,9 -310,84 -403,224 -96,144 -109,304 -78,469 303,379 1019,371 967,-255z"/>
   <path class="fil1" d="M3205 1108c198,-4 363,150 367,345 4,194 -154,355 -352,359 -199,4 -363,-150 -367,-344 -4,-195 153,-355 352,-360z"/>
   <path class="fil0" d="M3131 1239c26,-1 51,4 74,14 -56,2 -101,53 -99,114 0,14 3,28 8,40 -21,8 -36,30 -36,55 1,31 25,56 54,56 25,-1 45,-20 50,-46 9,3 19,5 29,4 57,-1 102,-52 101,-114 0,-1 0,-2 0,-3 12,27 19,57 19,88 3,117 -83,214 -191,217 -108,2 -198,-91 -200,-209 -3,-117 83,-214 191,-216z"/>
   <path class="fil0" d="M2159 1225c40,-1 78,7 113,22 -1,0 -1,0 -2,0 -78,1 -139,71 -137,156 0,19 4,38 10,55 -28,10 -49,40 -48,75 1,43 34,77 73,76 34,-1 62,-27 69,-62 12,4 26,6 40,6 77,-2 139,-72 137,-156 0,-10 -1,-19 -3,-28 30,49 48,107 49,169 4,177 -125,323 -288,326 -162,3 -297,-137 -301,-313 -3,-177 125,-322 288,-326z"/>
   <path class="fil1" d="M1824 2379c72,386 110,329 223,81 -77,-20 -151,-48 -223,-81z"/>
   <path class="fil1" d="M3276 2365c109,151 176,99 154,-96 -50,34 -102,67 -154,96z"/>
   <path class="fil3" d="M3184 2901c-68,-185 -182,-287 -360,-369l-90 -42c-91,15 -183,23 -275,23 -111,1 -221,-10 -329,-33l-7 15c-23,51 -47,106 -76,154 -29,48 -70,96 -132,92 -12,-1 -24,-4 -34,-8 19,18 39,35 61,51 233,172 574,213 855,193 16,-1 33,-2 49,-4 110,-11 231,-33 338,-72zm-1390 -284c-24,-70 -39,-150 -52,-223l-12 -65c-21,-12 -41,-25 -62,-38 16,136 60,260 141,363 -6,-12 -11,-24 -15,-37z"/>
   <path class="fil4" d="M3975 2109c-200,-15 -295,251 -495,413 108,70 208,163 233,285 14,72 0,139 -30,199l5 32c11,70 20,139 26,205 362,-108 569,-336 616,-530 53,-216 -155,-589 -355,-604z"/>
   <path class="fil1" d="M3478 817c-30,-175 -141,33 -287,96 22,17 43,34 64,52l80 67c32,9 63,22 92,37 36,-79 64,-172 51,-252z"/>
   <path class="fil5" d="M1290 2433c-226,119 -480,363 -521,1160 -1,20 2,40 7,60 75,74 156,143 243,205 82,24 170,35 257,35 -170,-22 -489,-969 14,-1460z"/>
   <path class="fil5" d="M963 2625c64,-75 135,-124 212,-157 -4,-296 151,-398 406,-136 -6,-36 -9,-73 -11,-112 -111,-127 -187,-269 -226,-429 86,172 212,312 365,416 -185,-159 -302,-313 -128,-451 -29,-45 -51,-91 -67,-135 8,10 16,21 25,32 22,-220 103,-417 307,-584 3,-128 117,-208 298,-261 -147,39 -303,104 -469,196 143,159 -128,453 -357,322 -258,274 -378,875 -355,1299z"/>
   <path class="fil5" d="M1642 3400c32,321 -22,573 -358,587 1,11 2,22 3,34 75,38 153,71 233,100 0,-34 1,-56 1,-61 154,-108 216,-307 121,-660z"/>
   <path class="fil5" d="M3688 3038c11,70 20,139 26,205 237,-70 407,-192 510,-322 72,-179 42,-389 -132,-594 -79,-93 -170,-135 -260,-54 -100,89 -193,217 -294,290 84,64 154,145 175,244 14,72 0,139 -30,199l5 32z"/>
   <path class="fil5" d="M3369 2839c85,-122 -79,-251 -372,-382 -26,6 -52,12 -80,18 172,90 288,208 357,404 34,-11 65,-24 95,-40z"/>
   <path class="fil6" d="M1338 1075c-62,-185 20,-437 140,-597 -9,2 -18,7 -27,15 -218,176 -257,442 -220,609 43,189 176,250 330,168 -62,13 -139,9 -195,-27 182,13 258,-98 258,-98 0,0 -225,115 -286,-70z"/>
   <path class="fil7" d="M3070 1008c-314,-245 -575,-230 -856,-156 639,-7 362,322 856,156z"/>
   <path class="fil7" d="M3227 1915c-482,-75 500,185 -934,468 484,-10 892,-101 1145,-322 -27,-78 -31,-98 -41,-186 -52,24 -109,38 -170,40z"/>
   <path class="fil7" d="M3560 2910c-36,153 -235,257 -581,263 -22,0 -40,-17 -42,-38 -1,-22 14,-41 36,-44 223,-32 414,-102 517,-217 13,-15 33,-18 49,-9 17,8 26,27 21,45z"/>
   <path class="fil7" d="M1423 2512c115,211 153,435 160,742 6,306 -33,456 -121,513 -89,57 -117,-23 -101,-151 109,-905 -172,-702 -155,-853 20,-173 84,-330 217,-251z"/>
   <path class="fil8" d="M3555 3134c21,160 14,403 -39,625 -52,44 -106,86 -163,125 63,-197 24,-334 -191,-414 -270,-101 -249,-136 3,-188 117,-24 259,-63 390,-148z"/>
   <path class="fil8" d="M1981 3788c190,32 308,215 345,447 -40,3 -81,4 -121,4 -37,0 -74,-1 -111,-3 116,-102 98,-305 -113,-448z"/>
   <path class="fil6" d="M2137 2027c-517,-295 -351,-842 -32,-933 -134,25 -248,97 -327,215 -96,144 -109,304 -78,469 110,138 275,224 437,249z"/>
   <path class="fil6" d="M2853 1468c4,194 168,348 367,344 21,0 42,-3 62,-7 0,0 -77,-46 -134,-142 -3,0 -5,0 -8,1 -108,2 -198,-91 -200,-209 -3,-117 83,-214 191,-216 0,0 0,0 0,0 52,-92 138,-115 201,-111 -40,-14 -83,-21 -127,-20 -199,5 -356,165 -352,360z"/>
   <path class="fil6" d="M1922 2657c-26,-18 -8,-142 23,-229 -41,-14 -81,-31 -121,-49 37,197 65,279 98,278z"/>
   <path class="fil6" d="M3276 2365c48,68 89,95 117,86 21,-12 -6,-57 -39,-132 -26,16 -52,31 -78,46z"/>
   <path class="fil9" d="M1794 2617c-24,-70 -39,-150 -52,-223l-12 -65c-21,-12 -41,-25 -62,-38 16,136 60,260 141,363 -6,-12 -11,-24 -15,-37zm456 -116c-7,-1 -13,-2 -20,-3 -33,-5 -67,-11 -100,-18l-7 15c-23,51 -47,106 -76,154 -29,48 -70,96 -132,92 -12,-1 -24,-4 -34,-8 19,18 39,35 61,51 233,172 574,213 855,193 16,-1 33,-2 49,-4 110,-11 231,-33 338,-72 -7,-19 -14,-36 -21,-53 -725,221 -118,-163 -913,-347z"/>
  </g>
 </g>
</svg>
